<?xml version="1.0" encoding="UTF-8"?>
<svg id="_图层_1" xmlns="http://www.w3.org/2000/svg" version="1.1" viewBox="0 0 2153.21 263.67">
  <!-- Generator: Adobe Illustrator 29.6.0, SVG Export Plug-In . SVG Version: 2.1.1 Build 207)  -->
  <defs>
    <style>
      .st0, .st1 {
        isolation: isolate;
      }

      .st1 {
        font-family: zihunquyuanhei, zihunquyuanhei;
        font-size: 180px;
      }

      .st1, .st2 {
        fill: #0ea5e9;
      }

      .st2 {
        fill-rule: evenodd;
      }
    </style>
  </defs>
  <path class="st2" d="M196.22,179.75l-23.13-40.06-46.25,80.02-11.48-19.89L230.72,0h69.28l-103.78,179.75ZM184.68,199.73l-34.68,60.08-11.58-20.05,34.69-60.05,11.57,20.02ZM196.21,139.77l69.15-119.77h-23.09l-57.58,99.81,11.53,19.96h-.01ZM150,99.81L103.92,20h-23.09l57.29,99.23-11.55,19.99L57.74,20h-23.09l80.38,139.21-11.55,19.99L0,0h115.47l34.53,59.81L184.53,0h23.09l-57.62,99.81Z"/>
  <g class="st0">
    <text class="st1" transform="translate(514.59 184.29)"><tspan x="0" y="0">服务建议书排版助手</tspan></text>
  </g>
</svg>